<?xml version="1.0" standalone="no"?>
<!DOCTYPE svg PUBLIC "-//W3C//DTD SVG 20010904//EN"
 "http://www.w3.org/TR/2001/REC-SVG-20010904/DTD/svg10.dtd">
<svg version="1.0" xmlns="http://www.w3.org/2000/svg"
 width="717.000000pt" height="717.000000pt" viewBox="0 0 717.000000 717.000000"
 preserveAspectRatio="xMidYMid meet">
<metadata>
Created by potrace 1.14, written by Peter Selinger 2001-2017
</metadata>
<g transform="translate(0.000000,717.000000) scale(0.100000,-0.100000)"
fill="#000000" stroke="none">
<path d="M2857 7164 c-1 -1 -45 -4 -97 -8 -147 -9 -230 -22 -390 -61 -160 -38
-450 -178 -573 -275 -235 -185 -382 -355 -512 -590 -85 -155 -154 -351 -180
-513 -15 -96 -13 -310 5 -382 6 -27 14 -60 16 -73 14 -72 76 -202 129 -268
165 -207 399 -253 700 -138 50 19 137 60 195 91 254 135 330 174 414 208 49
20 96 38 105 40 9 2 36 10 61 19 62 21 279 63 370 72 41 4 127 7 190 8 137 0
221 -8 322 -30 15 -3 29 -5 30 -5 7 3 149 -49 188 -69 86 -43 220 -151 220
-177 0 -3 9 -17 19 -32 133 -186 65 -490 -157 -705 -125 -121 -193 -164 -412
-260 -193 -84 -179 -79 -275 -115 -369 -138 -580 -253 -741 -404 -153 -142
-248 -329 -280 -545 -3 -20 -7 -44 -10 -52 -7 -20 -6 -224 2 -280 5 -39 27
-145 38 -190 74 -281 278 -545 514 -664 261 -132 625 -66 821 149 86 95 189
277 296 525 98 228 207 401 319 508 147 139 332 231 771 382 148 51 309 110
358 131 396 172 633 434 717 795 28 116 35 185 35 319 0 173 -23 320 -74 474
-47 142 -136 319 -226 451 -39 57 -116 162 -129 176 -6 6 -31 35 -56 64 -285
341 -918 832 -1390 1078 -318 166 -673 287 -934 318 -23 3 -51 7 -63 10 -40 8
-328 24 -336 18z"/>
<path d="M2515 1209 c-189 -42 -349 -183 -420 -374 -35 -93 -40 -125 -39 -255
1 -99 5 -125 27 -183 15 -38 36 -81 47 -97 11 -15 20 -31 20 -35 0 -15 107
-118 156 -150 153 -102 404 -136 596 -80 126 37 228 106 304 208 131 176 123
427 -22 647 -105 160 -270 280 -433 316 -46 10 -195 12 -236 3z"/>
</g>
</svg>
